<?xml version="1.0" encoding="UTF-8" standalone="no"?>
<!-- Generator: Adobe Illustrator 16.0.0, SVG Export Plug-In . SVG Version: 6.00 Build 0)  -->

<svg
   xmlns:dc="http://purl.org/dc/elements/1.1/"
   xmlns:cc="http://creativecommons.org/ns#"
   xmlns:rdf="http://www.w3.org/1999/02/22-rdf-syntax-ns#"
   xmlns:svg="http://www.w3.org/2000/svg"
   xmlns="http://www.w3.org/2000/svg"
   xmlns:sodipodi="http://sodipodi.sourceforge.net/DTD/sodipodi-0.dtd"
   xmlns:inkscape="http://www.inkscape.org/namespaces/inkscape"
   version="1.1"
   id="Capa_1"
   x="0px"
   y="0px"
   width="348.077px"
   height="348.077px"
   viewBox="0 0 348.077 348.077"
   style="enable-background:new 0 0 348.077 348.077;"
   xml:space="preserve"
   sodipodi:docname="call.svg"
   inkscape:version="0.92.3 (2405546, 2018-03-11)"><metadata
   id="metadata903"><rdf:RDF><cc:Work
       rdf:about=""><dc:format>image/svg+xml</dc:format><dc:type
         rdf:resource="http://purl.org/dc/dcmitype/StillImage" /><dc:title></dc:title></cc:Work></rdf:RDF></metadata><defs
   id="defs901" /><sodipodi:namedview
   pagecolor="#ffffff"
   bordercolor="#666666"
   borderopacity="1"
   objecttolerance="10"
   gridtolerance="10"
   guidetolerance="10"
   inkscape:pageopacity="0"
   inkscape:pageshadow="2"
   inkscape:window-width="1920"
   inkscape:window-height="1001"
   id="namedview899"
   showgrid="false"
   inkscape:zoom="2.3213255"
   inkscape:cx="174.0385"
   inkscape:cy="174.0385"
   inkscape:window-x="-9"
   inkscape:window-y="-9"
   inkscape:window-maximized="1"
   inkscape:current-layer="Capa_1" />
<g
   id="g866"
   style="fill:#ffffff;fill-opacity:1">
	<g
   id="g864"
   style="fill:#ffffff;fill-opacity:1">
		<g
   id="g862"
   style="fill:#ffffff;fill-opacity:1">
			<path
   d="M340.273,275.083l-53.755-53.761c-10.707-10.664-28.438-10.34-39.518,0.744l-27.082,27.076     c-1.711-0.943-3.482-1.928-5.344-2.973c-17.102-9.476-40.509-22.464-65.14-47.113c-24.704-24.701-37.704-48.144-47.209-65.257     c-1.003-1.813-1.964-3.561-2.913-5.221l18.176-18.149l8.936-8.947c11.097-11.1,11.403-28.826,0.721-39.521L73.39,8.194     C62.708-2.486,44.969-2.162,33.872,8.938l-15.15,15.237l0.414,0.411c-5.08,6.482-9.325,13.958-12.484,22.02     C3.74,54.28,1.927,61.603,1.098,68.941C-6,127.785,20.89,181.564,93.866,254.541c100.875,100.868,182.167,93.248,185.674,92.876     c7.638-0.913,14.958-2.738,22.397-5.627c7.992-3.122,15.463-7.361,21.941-12.43l0.331,0.294l15.348-15.029     C350.631,303.527,350.95,285.795,340.273,275.083z"
   id="path860"
   style="fill:#ffffff;fill-opacity:1" />
		</g>
	</g>
</g>
<g
   id="g868">
</g>
<g
   id="g870">
</g>
<g
   id="g872">
</g>
<g
   id="g874">
</g>
<g
   id="g876">
</g>
<g
   id="g878">
</g>
<g
   id="g880">
</g>
<g
   id="g882">
</g>
<g
   id="g884">
</g>
<g
   id="g886">
</g>
<g
   id="g888">
</g>
<g
   id="g890">
</g>
<g
   id="g892">
</g>
<g
   id="g894">
</g>
<g
   id="g896">
</g>
</svg>