<?xml version="1.0" encoding="UTF-8" standalone="no"?>
<!-- Generator: Adobe Illustrator 19.1.0, SVG Export Plug-In . SVG Version: 6.00 Build 0)  -->

<svg
   xmlns:dc="http://purl.org/dc/elements/1.1/"
   xmlns:cc="http://creativecommons.org/ns#"
   xmlns:rdf="http://www.w3.org/1999/02/22-rdf-syntax-ns#"
   xmlns:svg="http://www.w3.org/2000/svg"
   xmlns="http://www.w3.org/2000/svg"
   xmlns:sodipodi="http://sodipodi.sourceforge.net/DTD/sodipodi-0.dtd"
   xmlns:inkscape="http://www.inkscape.org/namespaces/inkscape"
   version="1.1"
   id="Capa_1"
   x="0px"
   y="0px"
   viewBox="0 0 21.825 21.825"
   style="enable-background:new 0 0 21.825 21.825;"
   xml:space="preserve"
   sodipodi:docname="downArrowEd.svg"
   inkscape:version="0.92.3 (2405546, 2018-03-11)"><metadata
   id="metadata891"><rdf:RDF><cc:Work
       rdf:about=""><dc:format>image/svg+xml</dc:format><dc:type
         rdf:resource="http://purl.org/dc/dcmitype/StillImage" /><dc:title></dc:title></cc:Work></rdf:RDF></metadata><defs
   id="defs889" /><sodipodi:namedview
   pagecolor="#ffffff"
   bordercolor="#666666"
   borderopacity="1"
   objecttolerance="10"
   gridtolerance="10"
   guidetolerance="10"
   inkscape:pageopacity="0"
   inkscape:pageshadow="2"
   inkscape:window-width="1920"
   inkscape:window-height="1001"
   id="namedview887"
   showgrid="false"
   inkscape:zoom="37.021763"
   inkscape:cx="10.9125"
   inkscape:cy="10.9125"
   inkscape:window-x="-9"
   inkscape:window-y="-9"
   inkscape:window-maximized="1"
   inkscape:current-layer="Capa_1" />
<path
   style="fill:#2f2e41;fill-opacity:1"
   d="M16.791,13.254c0.444-0.444,1.143-0.444,1.587,0c0.429,0.444,0.429,1.143,0,1.587l-6.65,6.651  c-0.206,0.206-0.492,0.333-0.809,0.333c-0.317,0-0.603-0.127-0.81-0.333l-6.65-6.651c-0.444-0.444-0.444-1.143,0-1.587  s1.143-0.444,1.587,0l4.746,4.762V1.111C9.791,0.492,10.299,0,10.918,0c0.619,0,1.111,0.492,1.111,1.111v16.904L16.791,13.254z"
   id="path854" />
<g
   id="g856">
</g>
<g
   id="g858">
</g>
<g
   id="g860">
</g>
<g
   id="g862">
</g>
<g
   id="g864">
</g>
<g
   id="g866">
</g>
<g
   id="g868">
</g>
<g
   id="g870">
</g>
<g
   id="g872">
</g>
<g
   id="g874">
</g>
<g
   id="g876">
</g>
<g
   id="g878">
</g>
<g
   id="g880">
</g>
<g
   id="g882">
</g>
<g
   id="g884">
</g>
</svg>