<?xml version="1.0" encoding="UTF-8" standalone="no"?>
<!-- Generator: Adobe Illustrator 19.0.0, SVG Export Plug-In . SVG Version: 6.00 Build 0)  -->

<svg
   xmlns:dc="http://purl.org/dc/elements/1.1/"
   xmlns:cc="http://creativecommons.org/ns#"
   xmlns:rdf="http://www.w3.org/1999/02/22-rdf-syntax-ns#"
   xmlns:svg="http://www.w3.org/2000/svg"
   xmlns="http://www.w3.org/2000/svg"
   xmlns:sodipodi="http://sodipodi.sourceforge.net/DTD/sodipodi-0.dtd"
   xmlns:inkscape="http://www.inkscape.org/namespaces/inkscape"
   version="1.1"
   id="Layer_1"
   x="0px"
   y="0px"
   viewBox="0 0 512.001 512.001"
   style="enable-background:new 0 0 512.001 512.001;"
   xml:space="preserve"
   sodipodi:docname="mailEd.svg"
   inkscape:version="0.92.3 (2405546, 2018-03-11)"><metadata
   id="metadata899"><rdf:RDF><cc:Work
       rdf:about=""><dc:format>image/svg+xml</dc:format><dc:type
         rdf:resource="http://purl.org/dc/dcmitype/StillImage" /><dc:title></dc:title></cc:Work></rdf:RDF></metadata><defs
   id="defs897" /><sodipodi:namedview
   pagecolor="#ffffff"
   bordercolor="#666666"
   borderopacity="1"
   objecttolerance="10"
   gridtolerance="10"
   guidetolerance="10"
   inkscape:pageopacity="0"
   inkscape:pageshadow="2"
   inkscape:window-width="1920"
   inkscape:window-height="1001"
   id="namedview895"
   showgrid="false"
   inkscape:zoom="1.578122"
   inkscape:cx="256.00049"
   inkscape:cy="256.00049"
   inkscape:window-x="-9"
   inkscape:window-y="-9"
   inkscape:window-maximized="1"
   inkscape:current-layer="Layer_1" />
<g
   id="g862"
   style="fill:#ffffff;fill-opacity:1">
	<g
   id="g860"
   style="fill:#ffffff;fill-opacity:1">
		<path
   d="M511.646,126.634c-0.021-14.449-11.782-26.189-26.227-26.189c-0.012,0-0.024,0-0.034,0L26.19,101.076    c-7.005,0.009-13.588,2.746-18.535,7.706C2.709,113.743-0.009,120.334,0,127.337l0.355,258.029    c0.009,7.005,2.746,13.588,7.706,18.535c4.951,4.938,11.526,7.655,18.519,7.655c0.012,0,0.025,0,0.035,0l459.194-0.631    c14.458-0.02,26.207-11.799,26.19-26.261L511.646,126.634z M456.611,126.71L256.02,266.154L55.04,127.262L456.611,126.71z     M340.846,292.471l118.971,92.265l-407.972,0.56l119.696-92.825c5.722-4.439,6.764-12.675,2.326-18.399    c-4.439-5.722-12.675-6.764-18.399-2.326L26.561,371.715l-0.32-232.475l222.344,153.657c2.244,1.551,4.849,2.325,7.455,2.325    c2.617,0,5.236-0.783,7.485-2.346l221.912-154.264l0.336,233.066l-128.856-99.931c-5.719-4.437-13.959-3.396-18.397,2.326    C334.081,279.795,335.122,288.033,340.846,292.471z"
   id="path858"
   style="fill:#ffffff;fill-opacity:1" />
	</g>
</g>
<g
   id="g864">
</g>
<g
   id="g866">
</g>
<g
   id="g868">
</g>
<g
   id="g870">
</g>
<g
   id="g872">
</g>
<g
   id="g874">
</g>
<g
   id="g876">
</g>
<g
   id="g878">
</g>
<g
   id="g880">
</g>
<g
   id="g882">
</g>
<g
   id="g884">
</g>
<g
   id="g886">
</g>
<g
   id="g888">
</g>
<g
   id="g890">
</g>
<g
   id="g892">
</g>
</svg>