<?xml version="1.0" encoding="UTF-8" standalone="no"?>
<!-- Generator: Adobe Illustrator 21.1.0, SVG Export Plug-In . SVG Version: 6.00 Build 0)  -->

<svg
   xmlns:dc="http://purl.org/dc/elements/1.1/"
   xmlns:cc="http://creativecommons.org/ns#"
   xmlns:rdf="http://www.w3.org/1999/02/22-rdf-syntax-ns#"
   xmlns:svg="http://www.w3.org/2000/svg"
   xmlns="http://www.w3.org/2000/svg"
   xmlns:sodipodi="http://sodipodi.sourceforge.net/DTD/sodipodi-0.dtd"
   xmlns:inkscape="http://www.inkscape.org/namespaces/inkscape"
   version="1.1"
   id="Layer_1"
   x="0px"
   y="0px"
   viewBox="0 0 283 50"
   style="enable-background:new 0 0 283 50;"
   xml:space="preserve"
   sodipodi:docname="rasBlTx.svg"
   inkscape:version="0.92.3 (2405546, 2018-03-11)"><metadata
   id="metadata879"><rdf:RDF><cc:Work
       rdf:about=""><dc:format>image/svg+xml</dc:format><dc:type
         rdf:resource="http://purl.org/dc/dcmitype/StillImage" /><dc:title>rasam</dc:title></cc:Work></rdf:RDF></metadata><defs
   id="defs877" /><sodipodi:namedview
   pagecolor="#ffffff"
   bordercolor="#666666"
   borderopacity="1"
   objecttolerance="10"
   gridtolerance="10"
   guidetolerance="10"
   inkscape:pageopacity="0"
   inkscape:pageshadow="2"
   inkscape:window-width="1920"
   inkscape:window-height="1001"
   id="namedview875"
   showgrid="false"
   inkscape:zoom="4.9646643"
   inkscape:cx="145.92395"
   inkscape:cy="25"
   inkscape:window-x="-9"
   inkscape:window-y="-9"
   inkscape:window-maximized="1"
   inkscape:current-layer="Layer_1" />
<style
   type="text/css"
   id="style848">
	.st0{fill:#FFFFFF;}
</style>
<title
   id="title850">rasam</title>
<g
   id="Layer_2"
   style="fill:#3f3d56;fill-opacity:1">
	<g
   id="Layer_1-2"
   style="fill:#3f3d56;fill-opacity:1">
		<path
   class="st0"
   d="M42.1,1.4c2,0.8,3.8,2,5.3,3.6c1.6,1.6,3,3.4,4.3,5.3l-6.1,9c-0.5-0.7-1-1.4-1.8-2.3    c-0.7-0.9-1.5-1.7-2.3-2.5c-0.8-0.7-1.6-1.3-2.5-1.9c-0.7-0.5-1.5-0.7-2.3-0.6c-1.3,0.2-2.5,0.6-3.7,1.1c-1.4,0.6-2.9,1.2-4.5,2    c-1.6,0.8-3.2,1.6-4.8,2.4L19.3,20v29.6l-10.2-8v-32H0.6l5.7-8.1h13V15c2.2-1.5,4.4-3.1,6.6-4.7l5.5-4l2.3-1.6    c1-0.7,1.9-1.3,3-1.9c0.9-0.5,1.9-0.9,3-1.3C40.4,1.2,41.3,1.2,42.1,1.4z"
   id="path852"
   style="fill:#3f3d56;fill-opacity:1" />
		<path
   class="st0"
   d="M101.7,49.6l-9.1-7c-1.6,1.5-3.4,2.8-5.3,3.8c-2.3,1.2-4.7,2-7.1,2.6c-2.6,0.6-5.3,1-8,1    c-2.7,0.1-5.3-0.2-7.9-0.9c-2.4-0.6-4.8-1.7-6.8-3.2c-2.1-1.6-3.7-3.7-4.8-6.1c-1.3-2.4-1.7-5.2-1.2-7.9c0.6-2.5,1.6-4.8,3.1-6.8    c1.5-2,3.2-3.9,5.2-5.5c1.9-1.6,3.6-2.9,5.2-4c0.5-0.4,0.9-0.7,1.4-1c0.5-0.3,0.9-0.6,1.3-0.9l7.5,4.1l16.3,8.9V9.5H54.7l5.7-8    h41.3L101.7,49.6z M75.1,46.4c1.9-0.1,3.8-0.5,5.6-1.1c1.6-0.6,3.2-1.3,4.7-2.2c1.3-0.7,2.5-1.6,3.6-2.6c0.9-0.8,1.7-1.5,2.4-2.4    v-7.4l-20.1-8c-1.7,0.3-3.3,0.9-4.8,1.7c-1.4,0.9-2.7,1.9-3.8,3.2c-1.4,1.6-2.3,3.6-2.8,5.7c-1.1,4.3-0.2,7.6,2.7,10    C65.5,45.8,69.7,46.8,75.1,46.4z"
   id="path854"
   style="fill:#3f3d56;fill-opacity:1" />
		<path
   class="st0"
   d="M41.5,0.2c2,0.8,3.8,2,5.3,3.6c1.6,1.6,3,3.3,4.3,5.2l-6.1,9c-0.5-0.7-1-1.4-1.8-2.3    c-0.7-0.9-1.5-1.7-2.3-2.5c-0.8-0.7-1.6-1.3-2.5-1.9c-0.7-0.5-1.5-0.7-2.3-0.6c-1.3,0.2-2.5,0.6-3.7,1.1c-1.4,0.6-2.9,1.2-4.5,2    c-1.6,0.8-3.2,1.6-4.8,2.4l-4.4,2.4v29.6l-10.2-8v-32H0l5.7-8.1h13v13.5c2.2-1.5,4.4-3.1,6.7-4.7l5.5-4l2.3-1.6    c0.9-0.7,1.9-1.3,3-1.8C37,1,38,0.6,39,0.3C39.8-0.1,40.7-0.1,41.5,0.2z"
   id="path856"
   style="fill:#3f3d56;fill-opacity:1" />
		<path
   class="st0"
   d="M101.1,48.3l-9.1-7c-1.6,1.5-3.4,2.8-5.3,3.8c-2.3,1.2-4.7,2-7.1,2.6c-2.6,0.6-5.3,1-8,1    c-2.7,0.1-5.3-0.2-7.9-0.9c-2.4-0.6-4.8-1.7-6.8-3.2c-2.1-1.6-3.7-3.7-4.8-6.1c-1.3-2.4-1.7-5.2-1.2-7.9c0.6-2.5,1.6-4.8,3.1-6.8    c1.5-2,3.2-3.9,5.2-5.5c1.9-1.6,3.6-2.9,5.2-4c0.5-0.4,0.9-0.7,1.4-1c0.5-0.3,0.9-0.6,1.3-0.9l7.5,4.1l16.3,8.9V8.2H54.1l5.7-8    h41.3L101.1,48.3z M74.6,45.1c1.9-0.1,3.8-0.5,5.6-1.1c1.6-0.6,3.2-1.3,4.7-2.2c1.3-0.7,2.5-1.6,3.6-2.6c0.9-0.8,1.7-1.5,2.4-2.4    v-7.4l-20.1-8c-1.7,0.3-3.3,0.9-4.8,1.7c-1.4,0.9-2.7,1.9-3.8,3.2c-1.4,1.7-2.4,3.6-2.8,5.8c-1.1,4.3-0.2,7.6,2.7,10    C64.9,44.6,69.1,45.6,74.6,45.1L74.6,45.1z"
   id="path858"
   style="fill:#3f3d56;fill-opacity:1" />
		<path
   class="st0"
   d="M132.1,21.1c2.2,1.6,4.6,2.9,7.2,3.8c2.9,1.1,5.7,2.2,8.5,3.4c2.5,1.1,4.9,2.4,7.1,4.1c1.9,1.4,3,3.6,2.9,5.9    c0,1.6-0.6,3.1-1.6,4.3c-1.2,1.3-2.6,2.4-4.3,3.2c-1.9,1-3.8,1.7-5.9,2.2c-2.1,0.5-4.3,1-6.5,1.2c-2.1,0.3-4.1,0.4-6.2,0.3    c-1.6,0-3.3-0.2-4.9-0.6c-2.9-0.9-5.7-2.1-8.4-3.6c-2.8-1.5-5.5-3.4-7.8-5.6c-2.1-1.9-3.8-4.1-5-6.6c-1.1-2.1-1-4.7,0.1-6.8    c0.9-1.9,2.4-3.3,4.4-4.1c1.8-0.6,3.7-0.7,5.6-0.2c2,0.4,3.8,1.2,5.6,2.3c1.6,1,3.1,2.2,4.4,3.6c-2.1-0.6-4.4-0.4-6.5,0.4    c-1.6,0.7-3,1.8-4,3.3c-0.9,1.4-1.2,3-0.9,4.6c0.3,1.8,1.3,3.3,2.8,4.3c1.9,1.4,4.1,2.3,6.4,2.6c2.6,0.4,5.3,0.5,8,0.3    c2.6-0.2,5.2-0.7,7.8-1.5c2-0.6,3.9-1.7,5.5-3.1c1.2-1,1.7-2.6,1.3-4.2c-0.4-1.5-2-3.1-4.8-4.8c-1.3-0.7-2.7-1.4-4.1-2    c-1.7-0.7-3.5-1.6-5.4-2.5c-2-1-4-2.1-5.8-3.3c-1.9-1.3-3.7-2.8-5.2-4.5c-2.4-2.7-3.6-5.4-3.4-8.1h-11.4l5.8-8h44.3l-5.7,8h-17.1    c-1.5,0.5-2.9,1.4-4,2.5c-0.8,0.8-1.4,1.9-1.6,3.1c-0.1,1.1,0,2.3,0.5,3.3C130.1,19.4,131,20.4,132.1,21.1z"
   id="path860"
   style="fill:#3f3d56;fill-opacity:1" />
		<path
   class="st0"
   d="M210.7,49.4l-9.1-7c-1.6,1.5-3.4,2.8-5.3,3.8c-2.3,1.2-4.7,2-7.1,2.6c-2.6,0.6-5.3,1-8,1    c-2.6,0.1-5.3-0.2-7.8-0.9c-2.4-0.6-4.8-1.7-6.8-3.2c-2.1-1.6-3.7-3.7-4.8-6.1c-1.3-2.4-1.7-5.2-1.2-7.9c0.6-2.5,1.6-4.8,3.1-6.8    c1.5-2,3.2-3.9,5.2-5.5c1.9-1.6,3.6-2.9,5.2-4c0.5-0.4,0.9-0.7,1.4-1c0.5-0.3,0.9-0.6,1.3-0.9l7.5,4.1l16.3,8.9V9.3H162l5.7-8    h43.1L210.7,49.4z M184.2,46.2c1.9-0.1,3.8-0.5,5.6-1.1c1.6-0.6,3.2-1.3,4.6-2.1c1.3-0.7,2.5-1.6,3.6-2.6c0.9-0.8,1.7-1.6,2.4-2.4    v-7.4l-20.1-8c-1.7,0.3-3.3,0.9-4.8,1.7c-1.4,0.9-2.7,1.9-3.9,3.2c-1.4,1.6-2.4,3.6-2.8,5.7c-1.1,4.3-0.2,7.6,2.7,10    S178.7,46.6,184.2,46.2L184.2,46.2z"
   id="path862"
   style="fill:#3f3d56;fill-opacity:1" />
		<path
   class="st0"
   d="M131.4,19.8c2.2,1.6,4.6,2.9,7.2,3.8c2.9,1.1,5.7,2.2,8.5,3.4c2.5,1.1,4.9,2.4,7.1,4.1c1.9,1.4,3,3.6,2.9,5.9    c0,1.6-0.6,3.1-1.6,4.3c-1.2,1.3-2.6,2.4-4.3,3.2c-1.9,1-3.8,1.7-5.8,2.2c-2.1,0.5-4.3,0.9-6.5,1.2c-2.1,0.3-4.1,0.4-6.2,0.3    c-1.6,0-3.3-0.2-4.9-0.6c-2.9-0.9-5.7-2.1-8.4-3.6c-2.8-1.5-5.5-3.4-7.8-5.6c-2.1-1.9-3.8-4.1-5-6.6c-1.1-2.1-1-4.7,0.1-6.8    c0.9-1.9,2.4-3.3,4.4-4.1c1.8-0.6,3.7-0.7,5.6-0.2c2,0.4,3.8,1.2,5.6,2.3c1.6,1,3.1,2.2,4.4,3.6c-2.1-0.6-4.4-0.4-6.5,0.4    c-1.6,0.7-3,1.8-4,3.3c-0.9,1.4-1.2,3-0.9,4.6c0.3,1.8,1.3,3.3,2.8,4.4c1.9,1.4,4.1,2.3,6.4,2.6c2.6,0.4,5.3,0.5,8,0.3    c2.6-0.2,5.2-0.7,7.8-1.5c2-0.6,3.9-1.7,5.5-3.1c1.2-1,1.7-2.6,1.3-4.2c-0.4-1.5-2-3.1-4.8-4.8c-1.3-0.7-2.7-1.4-4.1-2    c-1.7-0.7-3.5-1.6-5.4-2.5c-2-1-4-2.1-5.8-3.3c-1.9-1.3-3.7-2.8-5.2-4.5c-2.4-2.7-3.5-5.5-3.4-8.2h-11.4l5.8-8h44.3l-5.7,8h-17.1    c-1.5,0.5-2.9,1.4-4,2.5c-0.8,0.8-1.4,1.9-1.6,3.1c-0.1,1.1,0,2.3,0.5,3.3C129.6,18.1,130.4,19.1,131.4,19.8z"
   id="path864"
   style="fill:#3f3d56;fill-opacity:1" />
		<path
   class="st0"
   d="M210.1,48.2l-9.1-7c-1.6,1.5-3.4,2.8-5.3,3.8c-2.3,1.2-4.7,2-7.1,2.6c-2.6,0.6-5.3,1-8,1    c-2.7,0.1-5.3-0.2-7.9-0.9c-2.4-0.6-4.8-1.7-6.8-3.2c-2.1-1.6-3.7-3.7-4.8-6.1c-1.3-2.4-1.7-5.2-1.2-7.9c0.6-2.5,1.6-4.8,3.1-6.8    c1.5-2,3.2-3.9,5.2-5.5c1.9-1.6,3.6-2.9,5.2-4c0.5-0.4,0.9-0.7,1.4-1c0.5-0.3,0.9-0.6,1.3-0.9l7.5,4.1l16.3,8.9V8h-38.5l5.6-8    h43.1L210.1,48.2z M183.6,45c1.9-0.1,3.8-0.5,5.6-1.1c1.6-0.6,3.2-1.3,4.6-2.2c1.3-0.7,2.5-1.6,3.6-2.6c0.9-0.8,1.7-1.5,2.4-2.4    v-7.4l-20.1-8c-1.7,0.3-3.3,0.8-4.8,1.6c-1.4,0.9-2.7,1.9-3.9,3.2c-1.4,1.7-2.4,3.7-2.8,5.8c-1.1,4.3-0.2,7.6,2.7,10    C173.9,44.4,178.1,45.4,183.6,45z"
   id="path866"
   style="fill:#3f3d56;fill-opacity:1" />
		<path
   class="st0"
   d="M268.5,2.5c4.3-1.4,7.8-1.6,10.5-0.6s4,2.8,4,5.4v42.6l-10.2-8V13.2c0.1-1.4-0.7-2.7-1.9-3.4    c-1.3-0.7-3-0.6-5.2,0.1c-2.7,0.9-5.6,2-8.7,3.4v36.5l-10.2-8V13.2c0.1-1.4-0.7-2.7-1.9-3.4c-1.3-0.7-3-0.6-5.2,0.1    c-1.3,0.4-2.6,0.9-4,1.5c-1.4,0.5-2.8,1.2-4.4,1.8v36.6l-10.2-8V9.8h-8.5l5.7-8.1h13v6.6c0.6-0.3,1.1-0.6,1.6-0.9l1.3-0.8    c1.5-0.9,3-1.6,4.4-2.4c1.3-0.7,2.6-1.3,4-1.7c4.4-1.4,7.9-1.6,10.6-0.6s4,2.8,4,5.4v1.3c0.6-0.4,1.2-0.7,1.8-1    c0.5-0.3,1-0.6,1.4-0.9c1.5-0.9,3-1.6,4.4-2.4C265.8,3.6,267.2,3,268.5,2.5z"
   id="path868"
   style="fill:#3f3d56;fill-opacity:1" />
		<path
   class="st0"
   d="M267.9,1.2c4.3-1.4,7.8-1.6,10.5-0.6c2.7,1,4,2.8,4,5.4v42.6l-10.2-8V11.9c0.1-1.4-0.7-2.7-1.9-3.4    c-1.3-0.7-3-0.6-5.2,0.1c-2.7,0.9-5.6,2-8.7,3.4v36.5l-10.2-8V11.9c0.1-1.4-0.7-2.7-1.9-3.4c-1.3-0.7-3-0.6-5.2,0.1    c-1.3,0.4-2.6,0.9-4,1.5s-2.8,1.2-4.4,1.8v36.6l-10.2-8V8.6H212l5.6-8.1h13V7c0.6-0.3,1.1-0.6,1.6-0.9l1.3-0.8    c1.5-0.9,3-1.6,4.4-2.4c1.3-0.7,2.6-1.3,4-1.7c4.3-1.4,7.8-1.6,10.5-0.6s4,2.8,4,5.4v1.3c0.6-0.4,1.2-0.7,1.8-1    c0.5-0.3,1-0.6,1.4-0.9c1.5-0.9,3-1.6,4.4-2.4C265.2,2.3,266.5,1.7,267.9,1.2z"
   id="path870"
   style="fill:#3f3d56;fill-opacity:1" />
	</g>
</g>
</svg>