{
  "accessors": [
    {
      "bufferView": 1,
      "componentType": 5126,
      "count": 15458,
      "max": [
        1.0013389587402344,
        1.0022519826889038,
        0.048439998179674149
      ],
      "min": [
        -1.0017900466918945,
        -1.0022929906845093,
        -0.39119300246238708
      ],
      "type": "VEC3"
    },
    {
      "bufferView": 1,
      "byteOffset": 185496,
      "componentType": 5126,
      "count": 15458,
      "max": [
        0.98535871505737305,
        0.99106675386428833,
        0.99999940395355225
      ],
      "min": [
        -0.99255329370498657,
        -0.97846847772598267,
        -0.95899742841720581
      ],
      "type": "VEC3"
    },
    {
      "bufferView": 0,
      "componentType": 5125,
      "count": 15726,
      "max": [
        15457
      ],
      "min": [
        16
      ],
      "type": "SCALAR"
    },
    {
      "bufferView": 0,
      "byteOffset": 62904,
      "componentType": 5125,
      "count": 16,
      "max": [
        15
      ],
      "min": [
        0
      ],
      "type": "SCALAR"
    }
  ],
  "asset": {
    "extras": {
      "author": "Lite (https://sketchfab.com/lite)",
      "license": "CC-BY-4.0 (http://creativecommons.org/licenses/by/4.0/)",
      "source": "https://sketchfab.com/3d-models/everest-lowpoly-2aab8334f49241559bf7223712658232",
      "title": "Everest LowPoly"
    },
    "generator": "Sketchfab-6.22.0",
    "version": "2.0"
  },
  "bufferViews": [
    {
      "buffer": 0,
      "byteLength": 62968,
      "byteOffset": 0,
      "name": "floatBufferViews",
      "target": 34963
    },
    {
      "buffer": 0,
      "byteLength": 370992,
      "byteOffset": 62968,
      "byteStride": 12,
      "name": "floatBufferViews",
      "target": 34962
    }
  ],
  "buffers": [
    {
      "byteLength": 433960,
      "uri": "scene.bin"
    }
  ],
  "materials": [
    {
      "doubleSided": true,
      "emissiveFactor": [
        0,
        0,
        0
      ],
      "name": "None",
      "pbrMetallicRoughness": {
        "baseColorFactor": [
          0.5,
          0.5,
          0.5,
          1
        ],
        "metallicFactor": 0,
        "roughnessFactor": 0.59999999999999998
      }
    }
  ],
  "meshes": [
    {
      "primitives": [
        {
          "attributes": {
            "NORMAL": 1,
            "POSITION": 0
          },
          "indices": 2,
          "material": 0,
          "mode": 4
        },
        {
          "attributes": {
            "NORMAL": 1,
            "POSITION": 0
          },
          "indices": 3,
          "material": 0,
          "mode": 1
        }
      ]
    }
  ],
  "nodes": [
    {
      "children": [
        1
      ],
      "name": "RootNode (gltf orientation matrix)",
      "rotation": [
        -0.70710678118654746,
        -0,
        -0,
        0.70710678118654757
      ]
    },
    {
      "children": [
        2
      ],
      "name": "RootNode (model correction matrix)"
    },
    {
      "children": [
        3
      ],
      "name": "22074f3f658d4e60ae29e2b6f284cbad.obj.cleaner"
    },
    {
      "mesh": 0,
      "name": ""
    }
  ],
  "scene": 0,
  "scenes": [
    {
      "name": "OSG_Scene",
      "nodes": [
        0
      ]
    }
  ]
}

