<?xml version="1.0" standalone="no"?>
<svg
  width="600"
  height="600"
  viewBox="0 0 600 600"
  xmlns="http://www.w3.org/2000/svg"
>
  <g transform="translate(300,300)">
    <path d="M131.1,-157.4C162,-130.4,173.6,-81.5,188.2,-28.7C202.8,24.1,220.5,80.8,199.4,113.2C178.4,145.5,118.6,153.6,72.8,147.6C26.9,141.6,-5,121.5,-28.2,102.3C-51.5,83.2,-66,64.8,-106.6,39.7C-147.3,14.5,-214,-17.5,-217.5,-45.4C-221,-73.3,-161.3,-97.2,-114.5,-121.4C-67.7,-145.7,-33.9,-170.3,8.1,-180C50.1,-189.8,100.3,-184.5,131.1,-157.4Z" fill="#38d39f" />
  </g>
</svg>
  