<?xml version="1.0" standalone="no"?>
<svg
  width="600"
  height="600"
  viewBox="0 0 600 600"
  xmlns="http://www.w3.org/2000/svg"
>
  <g transform="translate(300,300)">
    <path d="M59,-63.8C91.8,-42.7,144.4,-38.7,156.5,-20.2C168.5,-1.7,140.1,31.4,122.2,78.2C104.3,125.1,97,185.6,64.7,212.3C32.5,239,-24.6,231.8,-65.5,205.8C-106.5,179.7,-131.2,134.9,-132.2,94.9C-133.1,54.8,-110.4,19.7,-105.2,-20.1C-100,-59.8,-112.3,-104.2,-97.7,-128.5C-83.1,-152.7,-41.6,-156.9,-14.2,-139.9C13.1,-122.9,26.1,-84.8,59,-63.8Z" fill="#38d39f" />
  </g>
</svg>
  