<?xml version="1.0" standalone="no"?>
<svg
  width="600"
  height="600"
  viewBox="0 0 600 600"
  xmlns="http://www.w3.org/2000/svg"
>
  <g transform="translate(300,300)">
    <path d="M102.4,-141C138.3,-115,176.6,-92.4,179.9,-63C183.2,-33.6,151.5,2.7,133.1,38.3C114.8,74,109.7,109,89.7,138.3C69.8,167.7,34.9,191.3,6.1,183C-22.7,174.6,-45.5,134.2,-74,107.7C-102.5,81.1,-136.9,68.4,-155.3,43C-173.7,17.7,-176.3,-20.2,-166,-54.5C-155.6,-88.9,-132.5,-119.7,-102.7,-147.7C-72.9,-175.7,-36.4,-200.8,-1.6,-198.7C33.3,-196.5,66.6,-167,102.4,-141Z" fill="#7bdcb5" />
  </g>
</svg>
  