<?xml version="1.0" standalone="no"?>
<svg
  width="600"
  height="600"
  viewBox="0 0 600 600"
  xmlns="http://www.w3.org/2000/svg"
>
  <g transform="translate(300,300)">
    <path d="M81.8,-139.4C114.5,-106.2,155.5,-98,186.6,-72.7C217.8,-47.3,239,-5,234.5,34.4C230,73.8,199.6,110.3,159.1,113.6C118.5,117,67.7,87.3,29.4,97C-8.8,106.8,-34.6,156.1,-62.8,168.5C-91.1,181,-121.9,156.6,-124.9,124.3C-127.8,91.9,-103,51.6,-102.9,18C-102.8,-15.6,-127.3,-42.5,-122.4,-57C-117.5,-71.5,-83.1,-73.6,-57.8,-110.2C-32.4,-146.8,-16.2,-217.9,4.1,-224.4C24.5,-230.8,49,-172.6,81.8,-139.4Z" fill="#38d39f" />
  </g>
</svg>
  