<?xml version="1.0" standalone="no"?><svg xmlns="http://www.w3.org/2000/svg" viewBox="0 0 1440 320"><path fill="#38d39f" fill-opacity="1" d="M0,128L40,128C80,128,160,128,240,149.3C320,171,400,213,480,229.3C560,245,640,235,720,192C800,149,880,75,960,64C1040,53,1120,107,1200,128C1280,149,1360,139,1400,133.3L1440,128L1440,320L1400,320C1360,320,1280,320,1200,320C1120,320,1040,320,960,320C880,320,800,320,720,320C640,320,560,320,480,320C400,320,320,320,240,320C160,320,80,320,40,320L0,320Z"></path></svg>